<svg stroke="currentColor" fill="currentColor" stroke-width="0" viewBox="0 0 50 50" id="Csharp" height="1em" width="1em" xmlns="http://www.w3.org/2000/svg"><path d="M 24.625 2.078125 C 23.909625 2.078125 23.195141 2.2567344 22.556641 2.6152344 L 5.7148438 12.078125 C 4.4268437 12.802125 3.625 14.155328 3.625 15.611328 L 3.625 34.539062 C 3.625 35.994062 4.4258437 37.348266 5.7148438 38.072266 L 22.556641 47.535156 C 23.194641 47.893156 23.91 48.074219 24.625 48.074219 C 25.34 48.074219 26.057312 47.894156 26.695312 47.535156 L 43.537109 38.072266 C 44.826109 37.346266 45.625 35.992109 45.625 34.537109 L 45.625 15.611328 C 45.625 14.155328 44.825109 12.802125 43.537109 12.078125 L 26.695312 2.6152344 C 26.057313 2.2567344 25.340375 2.078125 24.625 2.078125 z M 24.625 13.074219 C 28.405 13.074219 31.900969 14.830406 34.167969 17.816406 L 29.787109 20.351562 C 28.469109 18.911562 26.598 18.074219 24.625 18.074219 C 20.765 18.074219 17.625 21.214219 17.625 25.074219 C 17.625 28.934219 20.765 32.074219 24.625 32.074219 C 26.598 32.074219 28.469109 31.238828 29.787109 29.798828 L 34.167969 32.333984 C 31.900969 35.319984 28.405 37.074219 24.625 37.074219 C 18.008 37.074219 12.625 31.691219 12.625 25.074219 C 12.625 18.457219 18.008 13.074219 24.625 13.074219 z M 35.613281 20.302734 L 36.369141 20.302734 L 35.753906 22.775391 L 37.335938 22.775391 L 37.951172 20.302734 L 38.707031 20.302734 L 38.091797 22.775391 L 39.837891 22.775391 L 39.837891 23.566406 L 37.886719 23.566406 L 37.347656 25.769531 L 39.152344 25.769531 L 39.152344 26.560547 L 37.142578 26.560547 L 36.533203 29.027344 L 35.777344 29.027344 L 36.386719 26.560547 L 34.804688 26.560547 L 34.195312 29.027344 L 33.439453 29.027344 L 34.048828 26.560547 L 32.302734 26.560547 L 32.302734 25.769531 L 34.253906 25.769531 L 34.792969 23.566406 L 32.988281 23.566406 L 32.988281 22.775391 L 34.998047 22.775391 L 35.613281 20.302734 z M 35.542969 23.554688 L 34.992188 25.78125 L 36.597656 25.78125 L 37.148438 23.554688 L 35.542969 23.554688 z "></path></svg>
