<?xml version="1.0" encoding="utf-8"?>
<svg viewBox="95.856 107.32 144 144" xmlns="http://www.w3.org/2000/svg" xmlns:bx="https://boxy-svg.com">
  <defs>
    <linearGradient id="gradient-2" bx:pinned="true">
      <stop offset="0" style="stop-color: rgb(91, 167, 221);"/>
      <stop offset="1" style="stop-color: rgb(21, 121, 191);"/>
    </linearGradient>
  </defs>
  <ellipse style="fill: rgb(255, 255, 255);" cx="167.856" cy="179.32" rx="72" ry="72"/>
  <path d="M 239.856 179.32 C 239.856 196.569 233.791 212.401 223.676 224.8 C 220.561 221.023 221.287 220.37 218.968 210.64 C 219.506 196.622 216.16 196.892 220.399 186.499 C 225.64 173.651 221.706 146.848 200 136.781 C 176.353 125.813 144.429 132.354 132.389 159.058 C 129.605 165.232 130.271 177.643 133.5 181.881 C 134.289 180.966 136.386 174.741 137.707 175.519 C 138.581 176.033 138.729 177.323 138.934 178.216 C 139.361 180.081 139.68 181.96 140.966 183.461 C 143.266 186.145 146.599 187.08 149.291 189.224 C 152.83 192.043 154.824 197.471 151.847 201.281 C 151.084 202.257 150.149 203.063 149.071 203.674 C 147.541 204.541 147.692 199.747 145.955 200 C 145.406 200.068 146.21 203.985 145.658 204.028 C 148.484 207.3 155.605 205.719 158.824 208.235 C 167.294 214.854 166.762 221.027 167.526 229.202 C 167.322 234.436 164.144 242.22 160.434 250.942 C 124.157 247.227 95.856 216.579 95.856 179.32 C 95.856 139.556 128.092 107.32 167.856 107.32 C 207.621 107.32 239.856 139.556 239.856 179.32 Z" style="fill: rgb(28, 134, 209);"/>
  <g transform="matrix(1, 0, 0, 1, -4.612883, -1.604489)">
    <g>
      <path d="M 186.093 160.662 C 180.631 161.383 179.004 171.118 185.311 170.494 C 190.384 169.992 193.136 161.978 186.093 160.662 Z" id="path4" style="stroke: rgb(91, 167, 221); fill: rgb(91, 167, 221);"/>
      <path d="M 111.62 201.159 C 108.998 204.871 112.4 207.007 115.888 207.981 C 129.093 211.507 143.192 209.713 155.635 205.137 C 165.733 203.618 169.798 195.359 161.636 188.063 C 155.365 182.787 153.943 188.062 150.229 176.758 C 149.586 170.579 144.271 174.03 141.87 176.112 C 135.282 181.406 131.776 187.339 124.508 192.614 C 120.706 195.375 114.291 197.378 111.62 201.159 Z" id="path5" style="fill: rgb(255, 173, 144); stroke: rgb(255, 173, 144);"/>
    </g>
  </g>
</svg>