<svg viewBox="0 0 251 48" fill="none" xmlns="http://www.w3.org/2000/svg">
<g clip-path="url(#clip0)">
<path d="M94 19.168C94 13.904 90 10.9813 83.5414 10.9813H60.7094V15.8347H83.968C87.3494 15.8347 88.3893 18.064 88.3893 19.7973C88.3893 21.5307 87.3494 23.7547 83.968 23.7547H60.7094V37.28H66.2027V28.6293H83.4293C86.928 28.6293 87.7334 30.512 87.7334 31.9733V37.3066H93.424V32.0906C93.424 29.36 91.9627 27.2053 88.624 26.128C92.0427 25.1307 94 22.864 94 19.168Z" fill="black"/>
<path d="M111.104 10.9813H105.605V37.28H111.104V10.9813Z" fill="black"/>
<path d="M152.928 31.7013H152.891C150.048 31.7013 149.584 31.088 143.317 22.4373C136.667 13.248 134.747 10.9813 127.669 10.9813H123.787V37.28H129.285V16.5333H129.323C131.989 16.5333 132.171 16.96 138.923 25.76C146.085 35.2 148.048 37.28 154.544 37.28H158.427V10.9813H152.928V31.7013Z" fill="black"/>
<path d="M197.904 31.8933H182.565C176.299 31.8933 175.531 29.168 175.531 24.0907C175.531 19.0133 176.299 16.3253 182.565 16.3253H203.093V10.992H182.565C173.147 10.992 169.915 15.488 169.915 24.1013C169.915 32.7147 173.147 37.2907 182.565 37.2907H203.403V22.9333H197.904V31.8933Z" fill="black"/>
<path d="M241.728 10.9813L233.653 20.7093C232.659 21.7356 231.766 22.8554 230.987 24.0533C230.215 22.8646 229.34 21.7456 228.373 20.7093L220.315 10.9813H212.315L225.312 25.168C226.133 26.0533 228.267 28.128 228.267 29.744V37.28H233.76V29.744C233.76 28.144 235.893 26.0906 236.725 25.168L249.717 10.9813H241.728Z" fill="black"/>
<path d="M6.93338 40.5333C10.2558 43.8547 14.4885 46.1163 19.0963 47.0322C23.704 47.9481 28.4798 47.4772 32.8199 45.679C37.16 43.8808 40.8695 40.8361 43.4794 36.9299C46.0892 33.0236 47.4822 28.4312 47.4822 23.7333C47.4822 19.0355 46.0892 14.443 43.4794 10.5368C40.8695 6.63056 37.16 3.58584 32.8199 1.78766C28.4798 -0.0105157 23.704 -0.481419 19.0963 0.434492C14.4885 1.3504 10.2558 3.612 6.93338 6.93333C2.48193 11.3912 -0.0183105 17.4335 -0.0183105 23.7333C-0.0183105 30.0332 2.48193 36.0755 6.93338 40.5333ZM8.53338 38.9333C6.63472 37.0347 7.80271 31.792 11.8934 25.6693C13.3252 27.522 14.8751 29.2803 16.5334 30.9333C18.1879 32.59 19.9461 34.1398 21.7973 35.5733C15.6907 39.6693 10.4427 40.8427 8.53338 38.9333ZM13.264 23.7333C16.248 19.7746 19.7762 16.2572 23.744 13.2853C25.7205 14.7659 27.5883 16.386 29.3334 18.1333C31.0877 19.8782 32.7133 21.748 34.1974 23.728C32.7121 25.7103 31.0866 27.5836 29.3334 29.3333C27.5867 31.0879 25.7151 32.7135 23.7334 34.1973C21.7527 32.7121 19.8812 31.0866 18.1334 29.3333C16.3844 27.5883 14.7624 25.7204 13.28 23.744L13.264 23.7333ZM12.432 42C15.632 41.632 19.616 39.8667 23.7547 37.0187C27.888 39.888 31.8667 41.6427 35.072 42C31.6686 44.0971 27.7496 45.2076 23.752 45.2076C19.7544 45.2076 15.8354 44.0971 12.432 42ZM25.68 35.6C27.5284 34.1575 29.283 32.5988 30.9334 30.9333C32.59 29.2788 34.1398 27.5205 35.5734 25.6693C39.6694 31.8027 40.8374 37.0507 38.9334 38.9333C37.0294 40.816 31.7974 39.6693 25.68 35.584V35.6ZM42 35.0667C41.632 31.8667 39.8667 27.8827 37.0134 23.7493C39.888 19.6107 41.6374 15.6373 42 12.432C44.0951 15.8331 45.2045 19.7493 45.2045 23.744C45.2045 27.7387 44.0951 31.6548 42 35.056V35.0667ZM38.9334 8.53333C40.8267 10.4267 39.6587 15.6747 35.5734 21.792C34.1396 19.9426 32.5898 18.1862 30.9334 16.5333C29.2774 14.8798 27.5192 13.3319 25.6694 11.8987C31.7974 7.81867 37.0454 6.65067 38.9334 8.53333ZM35.056 5.49333C31.856 5.86133 27.872 7.62667 23.7387 10.4747C19.6 7.60533 15.6267 5.86667 12.4214 5.49333C15.8229 3.39374 19.7414 2.28178 23.7387 2.28178C27.736 2.28178 31.6545 3.39374 35.056 5.49333ZM21.808 11.8933C18.1012 14.7667 14.7734 18.0981 11.904 21.808C7.81872 15.6907 6.65071 10.4427 8.53338 8.53333C10.416 6.624 15.6907 7.81867 21.808 11.9093V11.8933ZM10.48 23.744C7.61071 27.8827 5.86672 31.856 5.49872 35.0667C3.40122 31.6663 2.29044 27.7498 2.29044 23.7547C2.29044 19.7595 3.40122 15.843 5.49872 12.4427C5.86672 15.632 7.60005 19.616 10.48 23.744Z" fill="url(#paint0_linear)"/>
</g>
<defs>
<linearGradient id="paint0_linear" x1="47.4667" y1="23.4667" x2="5.11802e-05" y2="23.4667" gradientUnits="userSpaceOnUse">
<stop stop-color="#FF96D2"/>
<stop offset="1" stop-color="#8C00FF"/>
</linearGradient>
<clipPath id="clip0">
<rect width="250.133" height="48" fill="black"/>
</clipPath>
</defs>
</svg>
