<?xml version="1.0" encoding="iso-8859-1"?>
<!-- Uploaded to: SVG Repo, www.svgrepo.com, Generator: SVG Repo Mixer Tools -->
<svg version="1.1" id="Layer_1" xmlns="http://www.w3.org/2000/svg" xmlns:xlink="http://www.w3.org/1999/xlink" 
	 
   width="700"
   height="700"
   viewBox="390,76,700,700" xml:space="preserve">
  <path
			d="m 653.07558,349.59726 c 1.07792,-0.61108 2.01377,-1.41765 2.77639,-2.39351 2.97734,-3.80982 0.98295,-9.23795 -2.55552,-12.05657 -2.69201,-2.14436 -6.02506,-3.07919 -8.32554,-5.76353 -1.2863,-1.50094 -1.60451,-3.37995 -2.03201,-5.24502 -0.20453,-0.89229 -0.35263,-2.18254 -1.22695,-2.69719 -1.32114,-0.77767 -2.96668,0.63659 -3.75609,1.55105 -1.41033,-6.05687 -3.33735,-11.09939 -2.01288,-17.26181 9.4632,-26.96125 42.08225,-40.31005 65.07438,-32.04774 21.30968,10.88017 37.64763,33.11208 31.05405,54.07848 -3.36742,10.70779 -9.0116,16.20697 -11.80448,28.42104 6.73809,23.43619 26.80716,28.69372 40.0633,25.79591 8.37106,-2.6376 13.1511,-4.9146 19.40936,-11.3168 7.11371,-8.75083 7.14581,-7.31522 10.84385,-17.96177 1.24875,-6.15729 -2.21846,-12.31207 -2.18818,-12.55388 0.1431,-1.14267 26.73688,10.11841 30.58678,14.03615 49.18382,29.35251 37.24925,96.99337 2.55309,113.90143 -16.4231,7.39022 -37.11154,16.63522 -48.44932,18.07425 -19.69185,2.24049 -42.46457,1.10706 -50.48521,1.08702 -21.03439,-3.29683 -34.17352,-5.7789 -50.22669,-16.4974 -15.58403,-16.60896 -18.05776,-20.44653 -19.96196,-35.26944 0.46751,-19.7082 18.62215,-47.60063 19.1192,-60.35268 -0.49621,-10.3223 -3.32437,-14.61915 -12.3101,-17.10878 -3.93735,-1.0909 -10.04021,-3.29105 -12.86615,-6.56213 0.55212,-0.0431 1.10063,-0.0901 1.65028,-0.15886 1.73687,-0.25235 3.54113,-0.83126 5.0704,-1.69822 z"
			id="path3"
			fill="#ffffff"
			stroke="#ffffff" />
	<path
			d="m 685.48452,304.98126 c -5.46121,0.7206 -7.08806,10.45595 -0.78183,9.83206 5.07358,-0.50194 7.82518,-8.51651 0.78183,-9.83206 z"
			id="path4"
			fill="rgba(28, 134, 209, 1)"
			stroke="rgba(28, 134, 209, 1)" />
	<path
			d="m 610.7621,345.92757 c -2.27314,3.42204 0.67589,5.39135 3.69986,6.28932 11.44476,3.25145 23.66569,1.59746 34.45097,-2.62212 8.75277,-1.39985 12.27573,-9.01363 5.20191,-15.74085 -5.4363,-4.86403 -6.66803,-0.001 -9.8879,-10.42199 -0.55712,-5.6971 -3.81106,-2.66478 -5.89242,-0.74596 -5.71099,4.88085 -10.10107,10.50062 -16.40105,15.36367 -3.2968,2.54485 -8.85606,4.39242 -11.17137,7.87794 z"
			id="path5"
			fill="rgba(28, 134, 209, 1)"
			stroke="rgba(28, 134, 209, 1)" />
</svg>